<mxfile host="Electron" agent="Mozilla/5.0 (Windows NT 10.0; Win64; x64) AppleWebKit/537.36 (KHTML, like Gecko) draw.io/25.0.2 Chrome/128.0.6613.186 Electron/32.2.5 Safari/537.36" version="25.0.2">
  <diagram name="Page-1" id="2nBoL76WN2Omy7-yMfxV">
    <mxGraphModel dx="2153" dy="1533" grid="1" gridSize="10" guides="1" tooltips="1" connect="1" arrows="1" fold="1" page="1" pageScale="1" pageWidth="850" pageHeight="1100" math="0" shadow="0">
      <root>
        <mxCell id="0" />
        <mxCell id="1" parent="0" />
        <mxCell id="ArEUselNV9XBzLjaB97--1" value="" style="ellipse;html=1;shape=startState;fillColor=#000000;strokeColor=#ff0000;" vertex="1" parent="1">
          <mxGeometry x="420" y="40" width="30" height="30" as="geometry" />
        </mxCell>
        <mxCell id="ArEUselNV9XBzLjaB97--2" value="" style="edgeStyle=orthogonalEdgeStyle;html=1;verticalAlign=bottom;endArrow=open;endSize=8;strokeColor=#ff0000;rounded=0;" edge="1" source="ArEUselNV9XBzLjaB97--1" parent="1">
          <mxGeometry relative="1" as="geometry">
            <mxPoint x="435" y="130" as="targetPoint" />
          </mxGeometry>
        </mxCell>
        <mxCell id="ArEUselNV9XBzLjaB97--5" style="edgeStyle=orthogonalEdgeStyle;rounded=0;orthogonalLoop=1;jettySize=auto;html=1;exitX=0.5;exitY=1;exitDx=0;exitDy=0;entryX=0.5;entryY=0;entryDx=0;entryDy=0;" edge="1" parent="1" source="ArEUselNV9XBzLjaB97--3" target="ArEUselNV9XBzLjaB97--4">
          <mxGeometry relative="1" as="geometry" />
        </mxCell>
        <mxCell id="ArEUselNV9XBzLjaB97--3" value="Student logs into Moodle" style="rounded=1;whiteSpace=wrap;html=1;" vertex="1" parent="1">
          <mxGeometry x="375" y="130" width="120" height="60" as="geometry" />
        </mxCell>
        <mxCell id="ArEUselNV9XBzLjaB97--13" style="edgeStyle=orthogonalEdgeStyle;rounded=0;orthogonalLoop=1;jettySize=auto;html=1;exitX=0;exitY=0.5;exitDx=0;exitDy=0;entryX=0.25;entryY=0;entryDx=0;entryDy=0;" edge="1" parent="1" source="ArEUselNV9XBzLjaB97--4" target="ArEUselNV9XBzLjaB97--12">
          <mxGeometry relative="1" as="geometry" />
        </mxCell>
        <mxCell id="ArEUselNV9XBzLjaB97--4" value="Authentication successful?" style="rhombus;whiteSpace=wrap;html=1;" vertex="1" parent="1">
          <mxGeometry x="330" y="260" width="210" height="150" as="geometry" />
        </mxCell>
        <mxCell id="ArEUselNV9XBzLjaB97--6" value="Show login in error" style="rounded=1;whiteSpace=wrap;html=1;" vertex="1" parent="1">
          <mxGeometry x="620" y="360" width="120" height="60" as="geometry" />
        </mxCell>
        <mxCell id="ArEUselNV9XBzLjaB97--7" style="edgeStyle=orthogonalEdgeStyle;rounded=0;orthogonalLoop=1;jettySize=auto;html=1;entryX=0.652;entryY=0;entryDx=0;entryDy=0;entryPerimeter=0;" edge="1" parent="1" source="ArEUselNV9XBzLjaB97--4" target="ArEUselNV9XBzLjaB97--6">
          <mxGeometry relative="1" as="geometry" />
        </mxCell>
        <mxCell id="ArEUselNV9XBzLjaB97--8" value="No" style="text;html=1;align=center;verticalAlign=middle;resizable=0;points=[];autosize=1;strokeColor=none;fillColor=none;" vertex="1" parent="1">
          <mxGeometry x="540" y="308" width="40" height="30" as="geometry" />
        </mxCell>
        <mxCell id="ArEUselNV9XBzLjaB97--9" value="" style="ellipse;html=1;shape=endState;fillColor=#000000;strokeColor=#ff0000;" vertex="1" parent="1">
          <mxGeometry x="680" y="470" width="30" height="30" as="geometry" />
        </mxCell>
        <mxCell id="ArEUselNV9XBzLjaB97--11" style="edgeStyle=orthogonalEdgeStyle;rounded=0;orthogonalLoop=1;jettySize=auto;html=1;exitX=0.632;exitY=0.947;exitDx=0;exitDy=0;exitPerimeter=0;" edge="1" parent="1" source="ArEUselNV9XBzLjaB97--6" target="ArEUselNV9XBzLjaB97--9">
          <mxGeometry relative="1" as="geometry" />
        </mxCell>
        <mxCell id="ArEUselNV9XBzLjaB97--30" style="edgeStyle=orthogonalEdgeStyle;rounded=0;orthogonalLoop=1;jettySize=auto;html=1;exitX=0.5;exitY=1;exitDx=0;exitDy=0;entryX=0.5;entryY=0;entryDx=0;entryDy=0;" edge="1" parent="1" source="ArEUselNV9XBzLjaB97--12" target="ArEUselNV9XBzLjaB97--15">
          <mxGeometry relative="1" as="geometry" />
        </mxCell>
        <mxCell id="ArEUselNV9XBzLjaB97--12" value="Access student dashboard" style="rounded=1;whiteSpace=wrap;html=1;" vertex="1" parent="1">
          <mxGeometry x="110" y="360" width="120" height="60" as="geometry" />
        </mxCell>
        <mxCell id="ArEUselNV9XBzLjaB97--14" value="Yes" style="text;html=1;align=center;verticalAlign=middle;resizable=0;points=[];autosize=1;strokeColor=none;fillColor=none;" vertex="1" parent="1">
          <mxGeometry x="280" y="308" width="40" height="30" as="geometry" />
        </mxCell>
        <mxCell id="ArEUselNV9XBzLjaB97--31" style="edgeStyle=orthogonalEdgeStyle;rounded=0;orthogonalLoop=1;jettySize=auto;html=1;exitX=0.5;exitY=1;exitDx=0;exitDy=0;entryX=0.5;entryY=0;entryDx=0;entryDy=0;" edge="1" parent="1" source="ArEUselNV9XBzLjaB97--15" target="ArEUselNV9XBzLjaB97--16">
          <mxGeometry relative="1" as="geometry" />
        </mxCell>
        <mxCell id="ArEUselNV9XBzLjaB97--15" value="Navigate to &quot;Certificates and Transcripts&quot; section" style="rounded=1;whiteSpace=wrap;html=1;" vertex="1" parent="1">
          <mxGeometry x="110" y="480" width="120" height="60" as="geometry" />
        </mxCell>
        <mxCell id="ArEUselNV9XBzLjaB97--33" style="edgeStyle=orthogonalEdgeStyle;rounded=0;orthogonalLoop=1;jettySize=auto;html=1;exitX=1;exitY=0.5;exitDx=0;exitDy=0;entryX=0.5;entryY=0;entryDx=0;entryDy=0;" edge="1" parent="1" source="ArEUselNV9XBzLjaB97--16" target="ArEUselNV9XBzLjaB97--32">
          <mxGeometry relative="1" as="geometry" />
        </mxCell>
        <mxCell id="ArEUselNV9XBzLjaB97--35" style="edgeStyle=orthogonalEdgeStyle;rounded=0;orthogonalLoop=1;jettySize=auto;html=1;exitX=0;exitY=0.5;exitDx=0;exitDy=0;entryX=0.5;entryY=0;entryDx=0;entryDy=0;" edge="1" parent="1" source="ArEUselNV9XBzLjaB97--16" target="ArEUselNV9XBzLjaB97--17">
          <mxGeometry relative="1" as="geometry" />
        </mxCell>
        <mxCell id="ArEUselNV9XBzLjaB97--16" value="Certificates or Transcripts availability?" style="rhombus;whiteSpace=wrap;html=1;" vertex="1" parent="1">
          <mxGeometry x="110" y="610" width="120" height="100" as="geometry" />
        </mxCell>
        <mxCell id="ArEUselNV9XBzLjaB97--37" style="edgeStyle=orthogonalEdgeStyle;rounded=0;orthogonalLoop=1;jettySize=auto;html=1;exitX=0.5;exitY=1;exitDx=0;exitDy=0;entryX=0.5;entryY=0;entryDx=0;entryDy=0;" edge="1" parent="1" source="ArEUselNV9XBzLjaB97--17" target="ArEUselNV9XBzLjaB97--18">
          <mxGeometry relative="1" as="geometry" />
        </mxCell>
        <mxCell id="ArEUselNV9XBzLjaB97--17" value="Display list of availability documents (certificates and trancripts)" style="rounded=1;whiteSpace=wrap;html=1;" vertex="1" parent="1">
          <mxGeometry x="-120" y="710" width="120" height="60" as="geometry" />
        </mxCell>
        <mxCell id="ArEUselNV9XBzLjaB97--38" style="edgeStyle=orthogonalEdgeStyle;rounded=0;orthogonalLoop=1;jettySize=auto;html=1;exitX=0;exitY=0.5;exitDx=0;exitDy=0;entryX=0.5;entryY=0;entryDx=0;entryDy=0;" edge="1" parent="1" source="ArEUselNV9XBzLjaB97--18" target="ArEUselNV9XBzLjaB97--19">
          <mxGeometry relative="1" as="geometry" />
        </mxCell>
        <mxCell id="ArEUselNV9XBzLjaB97--39" style="edgeStyle=orthogonalEdgeStyle;rounded=0;orthogonalLoop=1;jettySize=auto;html=1;exitX=1;exitY=0.5;exitDx=0;exitDy=0;entryX=0.5;entryY=0;entryDx=0;entryDy=0;" edge="1" parent="1" source="ArEUselNV9XBzLjaB97--18" target="ArEUselNV9XBzLjaB97--22">
          <mxGeometry relative="1" as="geometry" />
        </mxCell>
        <mxCell id="ArEUselNV9XBzLjaB97--18" value="Student selects a certificate?" style="rhombus;whiteSpace=wrap;html=1;" vertex="1" parent="1">
          <mxGeometry x="-120" y="840" width="120" height="120" as="geometry" />
        </mxCell>
        <mxCell id="ArEUselNV9XBzLjaB97--44" style="edgeStyle=orthogonalEdgeStyle;rounded=0;orthogonalLoop=1;jettySize=auto;html=1;exitX=0.5;exitY=1;exitDx=0;exitDy=0;entryX=0.5;entryY=0;entryDx=0;entryDy=0;" edge="1" parent="1" source="ArEUselNV9XBzLjaB97--19" target="ArEUselNV9XBzLjaB97--20">
          <mxGeometry relative="1" as="geometry" />
        </mxCell>
        <mxCell id="ArEUselNV9XBzLjaB97--19" value="Generate certificate (if not pre-generated)" style="rounded=1;whiteSpace=wrap;html=1;" vertex="1" parent="1">
          <mxGeometry x="-280" y="970" width="120" height="60" as="geometry" />
        </mxCell>
        <mxCell id="ArEUselNV9XBzLjaB97--45" style="edgeStyle=orthogonalEdgeStyle;rounded=0;orthogonalLoop=1;jettySize=auto;html=1;exitX=0.5;exitY=1;exitDx=0;exitDy=0;entryX=0;entryY=0.5;entryDx=0;entryDy=0;" edge="1" parent="1" source="ArEUselNV9XBzLjaB97--20" target="ArEUselNV9XBzLjaB97--27">
          <mxGeometry relative="1" as="geometry" />
        </mxCell>
        <mxCell id="ArEUselNV9XBzLjaB97--20" value="Display download and share options" style="rounded=1;whiteSpace=wrap;html=1;" vertex="1" parent="1">
          <mxGeometry x="-280" y="1110" width="120" height="60" as="geometry" />
        </mxCell>
        <mxCell id="ArEUselNV9XBzLjaB97--47" style="edgeStyle=orthogonalEdgeStyle;rounded=0;orthogonalLoop=1;jettySize=auto;html=1;exitX=0;exitY=0.5;exitDx=0;exitDy=0;entryX=0.5;entryY=0;entryDx=0;entryDy=0;" edge="1" parent="1" source="ArEUselNV9XBzLjaB97--22" target="ArEUselNV9XBzLjaB97--23">
          <mxGeometry relative="1" as="geometry" />
        </mxCell>
        <mxCell id="ArEUselNV9XBzLjaB97--49" style="edgeStyle=orthogonalEdgeStyle;rounded=0;orthogonalLoop=1;jettySize=auto;html=1;exitX=1;exitY=0.5;exitDx=0;exitDy=0;entryX=0.5;entryY=0;entryDx=0;entryDy=0;" edge="1" parent="1" source="ArEUselNV9XBzLjaB97--22" target="ArEUselNV9XBzLjaB97--24">
          <mxGeometry relative="1" as="geometry" />
        </mxCell>
        <mxCell id="ArEUselNV9XBzLjaB97--22" value="Student selects a transcript?" style="rhombus;whiteSpace=wrap;html=1;" vertex="1" parent="1">
          <mxGeometry x="100" y="970" width="130" height="90" as="geometry" />
        </mxCell>
        <mxCell id="ArEUselNV9XBzLjaB97--51" style="edgeStyle=orthogonalEdgeStyle;rounded=0;orthogonalLoop=1;jettySize=auto;html=1;exitX=0.5;exitY=1;exitDx=0;exitDy=0;entryX=0.5;entryY=0;entryDx=0;entryDy=0;" edge="1" parent="1" source="ArEUselNV9XBzLjaB97--23" target="ArEUselNV9XBzLjaB97--25">
          <mxGeometry relative="1" as="geometry" />
        </mxCell>
        <mxCell id="ArEUselNV9XBzLjaB97--23" value="Generate transcript (if not pre generated)" style="rounded=1;whiteSpace=wrap;html=1;" vertex="1" parent="1">
          <mxGeometry x="-60" y="1100" width="120" height="60" as="geometry" />
        </mxCell>
        <mxCell id="ArEUselNV9XBzLjaB97--53" style="edgeStyle=orthogonalEdgeStyle;rounded=0;orthogonalLoop=1;jettySize=auto;html=1;exitX=0.5;exitY=1;exitDx=0;exitDy=0;entryX=1;entryY=0.5;entryDx=0;entryDy=0;" edge="1" parent="1" source="ArEUselNV9XBzLjaB97--24" target="ArEUselNV9XBzLjaB97--26">
          <mxGeometry relative="1" as="geometry" />
        </mxCell>
        <mxCell id="ArEUselNV9XBzLjaB97--24" value="Return to list view" style="rounded=1;whiteSpace=wrap;html=1;" vertex="1" parent="1">
          <mxGeometry x="300" y="1100" width="120" height="60" as="geometry" />
        </mxCell>
        <mxCell id="ArEUselNV9XBzLjaB97--52" style="edgeStyle=orthogonalEdgeStyle;rounded=0;orthogonalLoop=1;jettySize=auto;html=1;exitX=0.5;exitY=1;exitDx=0;exitDy=0;entryX=0;entryY=0.5;entryDx=0;entryDy=0;" edge="1" parent="1" source="ArEUselNV9XBzLjaB97--25" target="ArEUselNV9XBzLjaB97--26">
          <mxGeometry relative="1" as="geometry" />
        </mxCell>
        <mxCell id="ArEUselNV9XBzLjaB97--25" value="Display download and print options" style="rounded=1;whiteSpace=wrap;html=1;" vertex="1" parent="1">
          <mxGeometry x="-60" y="1270" width="120" height="60" as="geometry" />
        </mxCell>
        <mxCell id="ArEUselNV9XBzLjaB97--54" style="edgeStyle=orthogonalEdgeStyle;rounded=0;orthogonalLoop=1;jettySize=auto;html=1;exitX=0.5;exitY=1;exitDx=0;exitDy=0;entryX=1;entryY=0.5;entryDx=0;entryDy=0;" edge="1" parent="1" source="ArEUselNV9XBzLjaB97--26" target="ArEUselNV9XBzLjaB97--27">
          <mxGeometry relative="1" as="geometry" />
        </mxCell>
        <mxCell id="ArEUselNV9XBzLjaB97--26" value="" style="rhombus;whiteSpace=wrap;html=1;" vertex="1" parent="1">
          <mxGeometry x="160" y="1380" width="80" height="80" as="geometry" />
        </mxCell>
        <mxCell id="ArEUselNV9XBzLjaB97--46" style="edgeStyle=orthogonalEdgeStyle;rounded=0;orthogonalLoop=1;jettySize=auto;html=1;exitX=0.5;exitY=1;exitDx=0;exitDy=0;entryX=0;entryY=0.5;entryDx=0;entryDy=0;" edge="1" parent="1" source="ArEUselNV9XBzLjaB97--27" target="ArEUselNV9XBzLjaB97--28">
          <mxGeometry relative="1" as="geometry" />
        </mxCell>
        <mxCell id="ArEUselNV9XBzLjaB97--27" value="" style="rhombus;whiteSpace=wrap;html=1;" vertex="1" parent="1">
          <mxGeometry x="-100" y="1530" width="80" height="80" as="geometry" />
        </mxCell>
        <mxCell id="ArEUselNV9XBzLjaB97--56" style="edgeStyle=orthogonalEdgeStyle;rounded=0;orthogonalLoop=1;jettySize=auto;html=1;exitX=0.5;exitY=1;exitDx=0;exitDy=0;entryX=0.5;entryY=0;entryDx=0;entryDy=0;" edge="1" parent="1" source="ArEUselNV9XBzLjaB97--28" target="ArEUselNV9XBzLjaB97--29">
          <mxGeometry relative="1" as="geometry" />
        </mxCell>
        <mxCell id="ArEUselNV9XBzLjaB97--28" value="" style="rhombus;whiteSpace=wrap;html=1;" vertex="1" parent="1">
          <mxGeometry x="170" y="1650" width="80" height="80" as="geometry" />
        </mxCell>
        <mxCell id="ArEUselNV9XBzLjaB97--29" value="" style="ellipse;html=1;shape=endState;fillColor=#000000;strokeColor=#ff0000;" vertex="1" parent="1">
          <mxGeometry x="420" y="1850" width="40" height="40" as="geometry" />
        </mxCell>
        <mxCell id="ArEUselNV9XBzLjaB97--55" style="edgeStyle=orthogonalEdgeStyle;rounded=0;orthogonalLoop=1;jettySize=auto;html=1;exitX=0.5;exitY=1;exitDx=0;exitDy=0;entryX=1;entryY=0.5;entryDx=0;entryDy=0;" edge="1" parent="1" source="ArEUselNV9XBzLjaB97--32" target="ArEUselNV9XBzLjaB97--28">
          <mxGeometry relative="1" as="geometry" />
        </mxCell>
        <mxCell id="ArEUselNV9XBzLjaB97--32" value="Show &quot; No document availability&quot; message" style="rounded=1;whiteSpace=wrap;html=1;" vertex="1" parent="1">
          <mxGeometry x="375" y="720" width="120" height="60" as="geometry" />
        </mxCell>
        <mxCell id="ArEUselNV9XBzLjaB97--34" value="No" style="text;html=1;align=center;verticalAlign=middle;resizable=0;points=[];autosize=1;strokeColor=none;fillColor=none;" vertex="1" parent="1">
          <mxGeometry x="230" y="640" width="40" height="30" as="geometry" />
        </mxCell>
        <mxCell id="ArEUselNV9XBzLjaB97--36" value="Yes" style="text;html=1;align=center;verticalAlign=middle;resizable=0;points=[];autosize=1;strokeColor=none;fillColor=none;" vertex="1" parent="1">
          <mxGeometry x="60" y="638" width="40" height="30" as="geometry" />
        </mxCell>
        <mxCell id="ArEUselNV9XBzLjaB97--40" value="No" style="text;html=1;align=center;verticalAlign=middle;resizable=0;points=[];autosize=1;strokeColor=none;fillColor=none;" vertex="1" parent="1">
          <mxGeometry y="880" width="40" height="30" as="geometry" />
        </mxCell>
        <mxCell id="ArEUselNV9XBzLjaB97--41" value="Yes" style="text;html=1;align=center;verticalAlign=middle;resizable=0;points=[];autosize=1;strokeColor=none;fillColor=none;" vertex="1" parent="1">
          <mxGeometry x="-170" y="880" width="40" height="30" as="geometry" />
        </mxCell>
        <mxCell id="ArEUselNV9XBzLjaB97--48" value="Yes" style="text;html=1;align=center;verticalAlign=middle;resizable=0;points=[];autosize=1;strokeColor=none;fillColor=none;" vertex="1" parent="1">
          <mxGeometry x="50" y="990" width="40" height="30" as="geometry" />
        </mxCell>
        <mxCell id="ArEUselNV9XBzLjaB97--50" value="No" style="text;html=1;align=center;verticalAlign=middle;resizable=0;points=[];autosize=1;strokeColor=none;fillColor=none;" vertex="1" parent="1">
          <mxGeometry x="230" y="990" width="40" height="30" as="geometry" />
        </mxCell>
      </root>
    </mxGraphModel>
  </diagram>
</mxfile>
